<svg xmlns="http://www.w3.org/2000/svg" width="512" height="512" fill="none" viewBox="0 0 512 512"><path fill="#E6DBD1" d="M0 0h512v512H0z"/><path stroke="#341E0A" stroke-linecap="round" stroke-linejoin="round" stroke-width="18" d="M84 397h34.4m0 0h103.2m-103.2 0V250.023c0-9.187 0-13.784 1.118-18.059a34.359 34.359 0 0 1 4.828-10.614c2.483-3.656 5.933-6.688 12.85-12.738l82.587-72.241c12.822-11.216 19.234-16.825 26.455-18.959a34.435 34.435 0 0 1 19.521 0c7.226 2.136 13.647 7.75 26.489 18.983l82.56 72.217c6.916 6.05 10.368 9.082 12.851 12.738a34.353 34.353 0 0 1 4.816 10.614c1.117 4.275 1.125 8.872 1.125 18.059V397m-172 0h68.8m-68.8 0v-68.778c0-18.993 15.401-34.389 34.4-34.389s34.4 15.396 34.4 34.389V397m0 0h103.2m0 0H428"/></svg>
